<?xml version="1.0" encoding="UTF-8" standalone="no"?>
<!-- Created with Inkscape (http://www.inkscape.org/) -->

<svg
   width="31.75mm"
   height="13.229167mm"
   viewBox="0 0 31.75 13.229167"
   version="1.1"
   id="svg5342"
   inkscape:version="1.2.2 (732a01da63, 2022-12-09)"
   sodipodi:docname="amazon-logo.svg"
   xmlns:inkscape="http://www.inkscape.org/namespaces/inkscape"
   xmlns:sodipodi="http://sodipodi.sourceforge.net/DTD/sodipodi-0.dtd"
   xmlns="http://www.w3.org/2000/svg"
   xmlns:svg="http://www.w3.org/2000/svg">
  <sodipodi:namedview
     id="namedview5344"
     pagecolor="#505050"
     bordercolor="#eeeeee"
     borderopacity="1"
     inkscape:showpageshadow="0"
     inkscape:pageopacity="0"
     inkscape:pagecheckerboard="0"
     inkscape:deskcolor="#505050"
     inkscape:document-units="mm"
     showgrid="false"
     inkscape:zoom="1.0733976"
     inkscape:cx="-127.1663"
     inkscape:cy="59.157948"
     inkscape:window-width="1920"
     inkscape:window-height="1013"
     inkscape:window-x="-9"
     inkscape:window-y="-9"
     inkscape:window-maximized="1"
     inkscape:current-layer="svg5342" />
  <defs
     id="defs5339" />
  <g
     id="g8051"
     transform="matrix(0.9230779,0,0,0.8188182,-96.070157,-103.15263)">
    <path
       d="m 126.11138,134.80632 c -0.25598,-0.41674 -1.68895,-0.19576 -2.3356,-0.10091 -0.19514,0.0303 -0.22279,-0.18465 -0.0474,-0.34509 1.14271,-1.02519 3.01843,-0.72954 3.23309,-0.38444 0.22279,0.34509 -0.0554,2.74449 -1.12882,3.89067 -0.16433,0.17759 -0.32075,0.0807 -0.24807,-0.14934 0.24254,-0.76889 0.78056,-2.49184 0.52695,-2.9119 m -0.83333,1.21388 c -1.99833,1.88308 -4.89415,2.88334 -7.38855,2.88334 -3.33287,0.0202 -9.04331,-4.90476 -8.82121,-4.73827 2.74974,2.0082 5.86266,3.06356 9.03018,3.06134 2.21567,0 4.64884,-0.5913 6.88963,-1.80477 0.33735,-0.1776 0.62177,0.28455 0.28995,0.59836"
       style="fill:#ff9900;fill-opacity:1;stroke-width:3.14979"
       id="path5327" />
    <path
       d="m 109.10799,132.37514 c -0.19515,-0.34206 -0.40135,-0.62258 -0.40135,-1.26019 v -2.11445 c 0,-0.90007 0.0474,-1.72285 -0.46849,-2.3423 -0.40688,-0.49847 -1.08418,-0.67606 -1.60252,-0.67606 -1.01173,0 -2.14331,0.48434 -2.38024,2.08237 -0.0237,0.1675 0.0711,0.25629 0.1588,0.28455 l 1.03124,0.14227 c 0.098,-0.007 0.16749,-0.12815 0.18645,-0.24923 0.0892,-0.55195 0.44875,-0.81834 0.85562,-0.81834 0.22041,0 0.46849,0.10696 0.59648,0.35216 0.1509,0.28152 0.13114,0.66193 0.13114,0.98584 v 0.17759 c -0.6186,0.0807 -1.42421,0.14631 -2.00386,0.47021 -0.7063,0.36225 -1.15978,1.2498 -1.13435,2.22131 0,1.41317 0.69682,2.11799 1.59416,2.11799 0.75844,0 1.1706,-0.22805 1.75586,-0.98584 0.19198,0.35619 0.25361,0.53378 0.60754,0.90814 0.0821,0.0504 0.18251,0.0404 0.25124,-0.0404 l 0.81943,-0.89704 c 0.0893,-0.0908 0.0711,-0.23814 0.003,-0.36326 m -1.89523,-2.05038 c 0,0.53076 0.008,0.96869 -0.19514,1.44163 -0.16986,0.38041 -0.44005,0.61551 -0.73869,0.61551 -0.41003,0 -0.64625,-0.39857 -0.64625,-0.98583 0,-1.15687 0.81098,-1.36686 1.583,-1.36686 z m 15.85021,2.05038 c -0.19514,-0.34206 -0.40133,-0.62258 -0.40133,-1.26019 v -2.11446 c 0,-0.90006 0.0474,-1.72284 -0.46851,-2.34229 -0.41003,-0.49847 -1.08693,-0.67606 -1.60259,-0.67606 -1.01449,0 -2.14607,0.48434 -2.38016,2.08236 -0.0316,0.16751 0.0711,0.26034 0.1588,0.28456 l 1.03124,0.14227 c 0.0948,-0.007 0.16748,-0.12815 0.18408,-0.24923 0.0892,-0.55195 0.45191,-0.81834 0.85562,-0.81834 0.22041,0 0.46849,0.10696 0.59648,0.35216 0.1501,0.28152 0.13114,0.66193 0.13114,0.98583 v 0.1776 c -0.61623,0.0908 -1.42421,0.14631 -2.00117,0.47021 -0.70788,0.36023 -1.16295,1.24859 -1.13712,2.22131 0,1.41317 0.69682,2.11798 1.59424,2.11798 0.75844,0 1.1706,-0.22804 1.75586,-0.98583 0.19198,0.35619 0.25676,0.53378 0.61071,0.90814 0.0821,0.0605 0.1825,0.0404 0.25123,-0.0404 v 0.004 c 0.21488,-0.24217 0.60201,-0.669 0.81935,-0.90108 0.0837,-0.0908 0.0711,-0.23813 0,-0.36325 m -2.0903,-0.60846 c -0.16985,0.38041 -0.44005,0.61552 -0.73868,0.61552 -0.41003,0 -0.64705,-0.39857 -0.64705,-0.98584 0,-1.15687 0.81382,-1.36685 1.58309,-1.36685 v 0.29565 c 0,0.53076 0.008,0.96868 -0.19751,1.44162 m 14.38145,1.88661 h -1.0619 c -0.10429,-0.007 -0.18724,-0.11604 -0.18962,-0.24923 l -0.003,-6.97704 c 0.008,-0.13319 0.0987,-0.23309 0.20304,-0.23107 h 0.98661 c 0.09,0.004 0.16748,0.0807 0.1896,0.19576 v 1.06787 h 0.0237 c 0.29864,-0.95355 0.71341,-1.40964 1.44934,-1.40964 0.4993,-0.0303 0.97365,0.28052 1.24305,0.81834 0.27888,0.56204 0.27888,1.49863 0.27888,2.17499 v 4.39257 c -0.0158,0.12815 -0.10429,0.22098 -0.2062,0.21695 h -1.0675 c -0.0956,-0.005 -0.17461,-0.10091 -0.18962,-0.21695 v -3.79098 c 0,-0.76182 0.0711,-1.87601 -0.66363,-1.87601 -0.27335,0.0101 -0.51511,0.23107 -0.61623,0.55497 -0.13115,0.41876 -0.18882,0.8698 -0.16986,1.32074 v 3.75899 c -0.005,0.14026 -0.0956,0.25126 -0.2062,0.24924 m -4.48443,-7.60345 c 1.58023,0 2.43308,1.73354 2.43308,3.93345 0,2.12868 -0.94204,3.81954 -2.43308,3.81954 -1.54967,0 -2.39692,-1.73354 -2.39692,-3.89078 0,-2.17136 0.85562,-3.86221 2.39692,-3.86221 m 0.008,1.42386 c -0.7861,0 -0.83619,1.36695 -0.83619,2.21768 0,0.85062 -0.008,2.66973 0.82497,2.66973 0.82503,0 0.86406,-1.46655 0.86406,-2.36006 0.0158,-0.62359 -0.0395,-1.24708 -0.15879,-1.85099 -0.12009,-0.48434 -0.3571,-0.67606 -0.69682,-0.67606 m -19.67963,6.17959 h -1.06466 c -0.0995,-0.005 -0.18092,-0.10191 -0.19198,-0.22804 v -6.97704 c 0,-0.14227 0.0949,-0.24923 0.2062,-0.24923 h 0.99222 c 0.10349,0.004 0.18645,0.10696 0.19514,0.23107 v 0.91116 h 0.0158 c 0.25676,-0.88291 0.74422,-1.29218 1.39909,-1.29218 0.666,0 1.08418,0.40967 1.38241,1.29218 0.21726,-0.7931 0.81106,-1.31589 1.46877,-1.29218 0.44558,0 0.93367,0.23511 1.23191,0.76183 0.33972,0.58726 0.2702,1.44172 0.2702,2.18922 v 4.40337 c 0,0.13925 -0.0948,0.24924 -0.20621,0.24924 h -1.06466 c -0.10428,-0.007 -0.18724,-0.11604 -0.18961,-0.24924 v -3.70208 c 0,-0.29161 0.0158,-1.02519 -0.0316,-1.30288 -0.0806,-0.47021 -0.3176,-0.60543 -0.62729,-0.60543 -0.28204,0.0101 -0.5317,0.23713 -0.63519,0.57314 -0.1114,0.35619 -0.0972,0.93942 -0.0972,1.3384 v 3.69855 c 0,0.14227 -0.0917,0.24923 -0.2062,0.24923 h -1.06466 c -0.10429,-0.007 -0.18724,-0.11604 -0.18962,-0.24923 v -3.70208 c 0,-0.77596 0.0972,-1.92223 -0.6581,-1.92223 -0.76397,0 -0.73552,1.11772 -0.73552,1.92223 v 3.70208 c 1.5e-4,0.14227 -0.0925,0.25529 -0.20384,0.24923 m 12.7621,-6.2259 v -0.99694 c 0,-0.13723 0.0876,-0.24923 0.19514,-0.24923 h 3.50345 c 0.11139,0 0.20066,0.1009 0.20066,0.24923 v 0.85466 c 0,0.14228 -0.0948,0.33097 -0.26229,0.62662 l -1.81156,3.30694 c 0.66916,-0.0202 1.38241,0.10696 1.99556,0.54488 0.13668,0.10091 0.17302,0.24924 0.18408,0.39151 v 1.06434 c 0,0.14228 -0.12562,0.31382 -0.25597,0.22805 -1.16097,-0.76284 -2.53935,-0.75981 -3.69851,0.007 -0.12008,0.0807 -0.24807,-0.0807 -0.24807,-0.23107 v -1.01096 c 0,-0.16044 0,-0.43793 0.13115,-0.68312 l 2.09866,-3.84809 h -1.82831 c -0.10982,0.004 -0.20067,-0.10898 -0.20067,-0.24924"
       style="fill:#ffffff;fill-opacity:1;stroke-width:3.14979"
       id="path6945"
       sodipodi:nodetypes="csscsccccscscccscccccccsscccsscsccccscscccscccccccsscsccccccccccccsccccsccccccsssccssccccccssccccscccsssccscccsssccssscccsssssccccsccsscccc" />
  </g>
</svg>
