<?xml version="1.0" encoding="UTF-8" standalone="no"?>
<!-- Created with Inkscape (http://www.inkscape.org/) -->

<svg
   width="10.054167mm"
   height="7.0360641mm"
   viewBox="0 0 10.054167 7.0360641"
   version="1.1"
   id="svg5"
   xml:space="preserve"
   inkscape:version="1.2.2 (732a01da63, 2022-12-09)"
   sodipodi:docname="shop-car.svg"
   xmlns:inkscape="http://www.inkscape.org/namespaces/inkscape"
   xmlns:sodipodi="http://sodipodi.sourceforge.net/DTD/sodipodi-0.dtd"
   xmlns="http://www.w3.org/2000/svg"
   xmlns:svg="http://www.w3.org/2000/svg"><sodipodi:namedview
     id="namedview7"
     pagecolor="#505050"
     bordercolor="#eeeeee"
     borderopacity="1"
     inkscape:showpageshadow="0"
     inkscape:pageopacity="0"
     inkscape:pagecheckerboard="0"
     inkscape:deskcolor="#505050"
     inkscape:document-units="mm"
     showgrid="false"
     inkscape:zoom="11.313709"
     inkscape:cx="22.671611"
     inkscape:cy="15.600543"
     inkscape:window-width="1920"
     inkscape:window-height="1013"
     inkscape:window-x="-9"
     inkscape:window-y="-9"
     inkscape:window-maximized="1"
     inkscape:current-layer="svg5" /><defs
     id="defs2" /><g
     id="g10369"
     transform="matrix(1.3103339,0,0,1.0813068,-101.38343,-248.89039)"><path
       id="path9243"
       style="fill:#ffffff;fill-opacity:1;stroke-width:0.0330729"
       d="m 84.780603,230.17555 c 0.35278,0 0.35278,0.52917 0,0.52917 h -0.556038 l -1.196827,4.18682 c -0.09837,0.33986 -0.408934,0.57426 -0.762744,0.57568 h -3.178617 c -0.348794,0.001 -0.657104,-0.22647 -0.75861,-0.56017 l -0.943612,-3.06597 c -0.05251,-0.17014 0.07464,-0.34253 0.252698,-0.34261 h 0.149345 c 0.006,0.0155 0.01238,0.0306 0.01964,0.0455 0.01428,0.0326 0.02876,0.0649 0.04599,0.0961 0.0057,0.0116 0.012,0.0232 0.01809,0.0346 3.58e-4,0.001 6.77e-4,0.002 0.001,0.004 0.0092,0.031 0.01474,0.0626 0.02274,0.094 0.0061,0.0295 0.01645,0.058 0.02325,0.0873 0.0065,0.0299 0.0116,0.0601 0.0186,0.0899 0.0091,0.0364 0.02349,0.0709 0.03927,0.10491 0.0063,0.0158 0.01534,0.0305 0.01964,0.047 0.01377,0.0435 0.03539,0.083 0.06046,0.12093 l 0.778247,2.52904 c 0.03428,0.11105 0.137,0.18673 0.253215,0.18655 h 3.178617 c 0.118024,-5e-5 0.221745,-0.0783 0.254248,-0.19172 l 0.776697,-2.71869 h -0.01809 c 0.0024,-0.009 0.0047,-0.0181 0.0067,-0.0274 0.0024,-0.011 0.0032,-0.0221 0.0057,-0.0331 0.0025,-0.0126 0.0054,-0.0252 0.0083,-0.0377 0.0042,-0.0148 0.009,-0.0296 0.01344,-0.0444 0.0049,-0.0155 0.0085,-0.0311 0.01188,-0.047 0.0051,-0.0166 0.01114,-0.033 0.01654,-0.0496 0.0059,-0.0198 0.0098,-0.0402 0.01344,-0.0605 0.0029,-0.0153 0.0041,-0.031 0.0057,-0.0465 0.001,-0.01 0.0023,-0.0194 0.0047,-0.0284 0.0029,-0.0127 0.0072,-0.025 0.01033,-0.0377 0.0022,-0.009 0.0052,-0.0179 0.0083,-0.0269 0.0042,-0.011 0.0079,-0.022 0.01188,-0.0331 0.0032,-0.008 0.0048,-0.0158 0.0083,-0.0238 0.0019,-0.002 0.0027,-0.005 0.0041,-0.008 0.0044,-0.009 0.008,-0.0169 0.01034,-0.0248 h 0.02997 l 0.268201,-0.93896 c 0.06564,-0.22678 0.272925,-0.38315 0.509013,-0.38396 z m -3.228743,1.85157 c 1.93e-4,1.4e-4 3.23e-4,3.7e-4 5.16e-4,5.2e-4 h -0.0015 c 3.23e-4,-2.1e-4 7.11e-4,-3.1e-4 10e-4,-5.2e-4 z"
       sodipodi:nodetypes="cscccccccccccccccccccccccccccccccccccccccccccccccc" /><ellipse
       style="opacity:0.739623;fill:#ffffff;fill-opacity:1;stroke-width:0.255343"
       id="path10362"
       cx="-81.981773"
       cy="236.10776"
       transform="scale(-1,1)"
       rx="0.5554195"
       ry="0.54372644" /><ellipse
       style="opacity:0.739623;fill:#ffffff;fill-opacity:1;stroke-width:0.255343"
       id="ellipse10364"
       cx="-79.088577"
       cy="236.13882"
       transform="scale(-1,1)"
       rx="0.5554195"
       ry="0.54372644" /></g></svg>
